# xmcd
#
# Track frame offsets: 
#        150
#        17692
#        36636
#        49694
#        72699
#        88399
#        110199
#        132281
#        148367
#        171972
#        193697
#        219520
#
# Disc length: 3110 seconds
#
# Revision: 7
# Processed by: cddbd v1.5.2PL0 Copyright (c) Steve Scherf et al.
# Submitted via: ExactAudioCopy v0.95a5
#
DISCID=c80c240c
DTITLE=Blud Bros. - Not What You Think
DYEAR=2002
DGENRE=Blues
TTITLE0=Dead Man Walking
TTITLE1=Twistin' In The Wind
TTITLE2=Confusing Pleasure Trip
TTITLE3=Came and Bled and Died
TTITLE4=Joy
TTITLE5=(No) Sympathy For The Devil
TTITLE6=Out Of Control
TTITLE7=Prodigal Son
TTITLE8=See The Light Or Feel The Heat
TTITLE9=Spiritual Warfare
TTITLE10=Weighed In The Balance
TTITLE11=Strong
EXTD=
EXTT0=
EXTT1=
EXTT2=
EXTT3=
EXTT4=
EXTT5=
EXTT6=
EXTT7=
EXTT8=
EXTT9=
EXTT10=
EXTT11=
PLAYORDER=
